HIERARCHY
ROOT Hips
{
    OFFSET   0.000000   0.000000   0.000000
    CHANNELS 6 Xposition Yposition Zposition Zrotation Xrotation Yrotation
    JOINT Chest
    {
        OFFSET   0.000000   8.007230   0.000000
        CHANNELS 3 Zrotation Xrotation Yrotation
        JOINT Chest2
        {
            OFFSET   0.000000  22.077100   0.000000
            CHANNELS 3 Zrotation Xrotation Yrotation
            JOINT Neck
            {
                OFFSET   0.000000  23.255100   0.000000
                CHANNELS 3 Zrotation Xrotation Yrotation
                JOINT Head
                {
                    OFFSET   0.000000  14.370100   1.956600
                    CHANNELS 3 Zrotation Xrotation Yrotation
                    End Site
                    {
                        OFFSET   0.000000  19.566000   0.000000
                    }
                }
            }
            JOINT LeftCollar
            {
                OFFSET   3.911900  19.017000  -0.467063
                CHANNELS 3 Zrotation Xrotation Yrotation
                JOINT LeftShoulder
                {
                    OFFSET  10.383700   0.000000   0.000000
                    CHANNELS 3 Zrotation Xrotation Yrotation
                    JOINT LeftElbow
                    {
                        OFFSET  26.662100   0.001193   0.000980
                        CHANNELS 3 Zrotation Xrotation Yrotation
                        JOINT LeftWrist
                        {
                            OFFSET  28.869000  -0.000059  -0.000082
                            CHANNELS 3 Zrotation Xrotation Yrotation
                            JOINT LeftFinger0
                            {
                                OFFSET   2.044650  -2.323450   3.252850
                                CHANNELS 3 Zrotation Xrotation Yrotation
                                JOINT LeftFinger01
                                {
                                    OFFSET   3.088130   0.000000   0.000000
                                    CHANNELS 3 Zrotation Xrotation Yrotation
                                    JOINT LeftFinger02
                                    {
                                        OFFSET   2.639460   0.000000   0.000000
                                        CHANNELS 3 Zrotation Xrotation Yrotation
                                        End Site
                                        {
                                            OFFSET   2.582190   0.000000   0.000000
                                        }
                                    }
                                }
                            }
                            JOINT LeftFinger1
                            {
                                OFFSET   8.364480   0.000000   3.252850
                                CHANNELS 3 Zrotation Xrotation Yrotation
                                JOINT LeftFinger11
                                {
                                    OFFSET   4.646930   0.000000   0.000000
                                    CHANNELS 3 Zrotation Xrotation Yrotation
                                    JOINT LeftFinger12
                                    {
                                        OFFSET   2.323470   0.000000   0.000000
                                        CHANNELS 3 Zrotation Xrotation Yrotation
                                        End Site
                                        {
                                            OFFSET   2.273050   0.000000   0.000000
                                        }
                                    }
                                }
                            }
                            JOINT LeftFinger2
                            {
                                OFFSET   8.364490   0.000016   1.078090
                                CHANNELS 3 Zrotation Xrotation Yrotation
                                JOINT LeftFinger21
                                {
                                    OFFSET   5.111610   0.000000   0.000000
                                    CHANNELS 3 Zrotation Xrotation Yrotation
                                    JOINT LeftFinger22
                                    {
                                        OFFSET   2.788150   0.000016   0.000000
                                        CHANNELS 3 Zrotation Xrotation Yrotation
                                        End Site
                                        {
                                            OFFSET   2.727660   0.000000   0.000000
                                        }
                                    }
                                }
                            }
                            JOINT LeftFinger3
                            {
                                OFFSET   7.899780   0.000015  -1.078090
                                CHANNELS 3 Zrotation Xrotation Yrotation
                                JOINT LeftFinger31
                                {
                                    OFFSET   4.646930   0.000000   0.000000
                                    CHANNELS 3 Zrotation Xrotation Yrotation
                                    JOINT LeftFinger32
                                    {
                                        OFFSET   2.323470   0.000000   0.000000
                                        CHANNELS 3 Zrotation Xrotation Yrotation
                                        End Site
                                        {
                                            OFFSET   2.273050   0.000000   0.000000
                                        }
                                    }
                                }
                            }
                            JOINT LeftFinger4
                            {
                                OFFSET   7.435090   0.000000  -3.252850
                                CHANNELS 3 Zrotation Xrotation Yrotation
                                JOINT LeftFinger41
                                {
                                    OFFSET   3.717550   0.000000   0.000000
                                    CHANNELS 3 Zrotation Xrotation Yrotation
                                    JOINT LeftFinger42
                                    {
                                        OFFSET   1.858770   0.000000   0.000000
                                        CHANNELS 3 Zrotation Xrotation Yrotation
                                        End Site
                                        {
                                            OFFSET   1.818440   0.000000   0.000000
                                        }
                                    }
                                }
                            }
                        }
                    }
                }
            }
            JOINT RightCollar
            {
                OFFSET  -3.911910  19.017000  -0.467062
                CHANNELS 3 Zrotation Xrotation Yrotation
                JOINT RightShoulder
                {
                    OFFSET -10.383700   0.000014   0.000000
                    CHANNELS 3 Zrotation Xrotation Yrotation
                    JOINT RightElbow
                    {
                        OFFSET -26.662100   0.001225   0.001091
                        CHANNELS 3 Zrotation Xrotation Yrotation
                        JOINT RightWrist
                        {
                            OFFSET -28.869000  -0.000020  -0.000085
                            CHANNELS 3 Zrotation Xrotation Yrotation
                            JOINT RightFinger0
                            {
                                OFFSET  -2.044650  -2.323490   3.252850
                                CHANNELS 3 Zrotation Xrotation Yrotation
                                JOINT RightFinger01
                                {
                                    OFFSET  -3.088130   0.000000   0.000000
                                    CHANNELS 3 Zrotation Xrotation Yrotation
                                    JOINT RightFinger02
                                    {
                                        OFFSET  -2.639460   0.000000   0.000000
                                        CHANNELS 3 Zrotation Xrotation Yrotation
                                        End Site
                                        {
                                            OFFSET  -2.582190   0.000000   0.000000
                                        }
                                    }
                                }
                            }
                            JOINT RightFinger1
                            {
                                OFFSET  -8.364480   0.000000   3.252850
                                CHANNELS 3 Zrotation Xrotation Yrotation
                                JOINT RightFinger11
                                {
                                    OFFSET  -4.646930   0.000000   0.000000
                                    CHANNELS 3 Zrotation Xrotation Yrotation
                                    JOINT RightFinger12
                                    {
                                        OFFSET  -2.323470   0.000000   0.000000
                                        CHANNELS 3 Zrotation Xrotation Yrotation
                                        End Site
                                        {
                                            OFFSET  -2.273050   0.000000   0.000000
                                        }
                                    }
                                }
                            }
                            JOINT RightFinger2
                            {
                                OFFSET  -8.364480   0.000000   1.078090
                                CHANNELS 3 Zrotation Xrotation Yrotation
                                JOINT RightFinger21
                                {
                                    OFFSET  -5.111620   0.000000   0.000000
                                    CHANNELS 3 Zrotation Xrotation Yrotation
                                    JOINT RightFinger22
                                    {
                                        OFFSET  -2.788160   0.000000   0.000000
                                        CHANNELS 3 Zrotation Xrotation Yrotation
                                        End Site
                                        {
                                            OFFSET  -2.727660   0.000000   0.000000
                                        }
                                    }
                                }
                            }
                            JOINT RightFinger3
                            {
                                OFFSET  -7.899780   0.000000  -1.078090
                                CHANNELS 3 Zrotation Xrotation Yrotation
                                JOINT RightFinger31
                                {
                                    OFFSET  -4.646930   0.000000   0.000000
                                    CHANNELS 3 Zrotation Xrotation Yrotation
                                    JOINT RightFinger32
                                    {
                                        OFFSET  -2.323470   0.000000   0.000000
                                        CHANNELS 3 Zrotation Xrotation Yrotation
                                        End Site
                                        {
                                            OFFSET  -2.273050   0.000000   0.000000
                                        }
                                    }
                                }
                            }
                            JOINT RightFinger4
                            {
                                OFFSET  -7.435090   0.000000  -3.252850
                                CHANNELS 3 Zrotation Xrotation Yrotation
                                JOINT RightFinger41
                                {
                                    OFFSET  -3.717550   0.000000   0.000000
                                    CHANNELS 3 Zrotation Xrotation Yrotation
                                    JOINT RightFinger42
                                    {
                                        OFFSET  -1.858760   0.000000   0.000000
                                        CHANNELS 3 Zrotation Xrotation Yrotation
                                        End Site
                                        {
                                            OFFSET  -1.818440   0.000000   0.000000
                                        }
                                    }
                                }
                            }
                        }
                    }
                }
            }
        }
    }
    JOINT LeftHip
    {
        OFFSET   9.783030   0.000000   0.000000
        CHANNELS 3 Zrotation Xrotation Yrotation
        JOINT LeftKnee
        {
            OFFSET   0.000063 -41.789100   0.000608
            CHANNELS 3 Zrotation Xrotation Yrotation
            JOINT LeftAnkle
            {
                OFFSET   0.000048 -41.133200  -0.000184
                CHANNELS 3 Zrotation Xrotation Yrotation
                JOINT LeftToe
                {
                    OFFSET   0.000000  -6.358960  14.674500
                    CHANNELS 3 Zrotation Xrotation Yrotation
                    End Site
                    {
                        OFFSET   0.000000   0.000000   3.913200
                    }
                }
            }
        }
    }
    JOINT RightHip
    {
        OFFSET  -9.783030   0.000000   0.000000
        CHANNELS 3 Zrotation Xrotation Yrotation
        JOINT RightKnee
        {
            OFFSET   0.000071 -41.789100   0.001239
            CHANNELS 3 Zrotation Xrotation Yrotation
            JOINT RightAnkle
            {
                OFFSET   0.000037 -41.133200  -0.000166
                CHANNELS 3 Zrotation Xrotation Yrotation
                JOINT RightToe
                {
                    OFFSET   0.000000  -6.358960  14.674500
                    CHANNELS 3 Zrotation Xrotation Yrotation
                    End Site
                    {
                        OFFSET   0.000000   0.000000   3.913200
                    }
                }
            }
        }
    }
}
MOTION
Frames: 5
Frame Time:   0.016667
  0.474443  89.456900   1.111540  -0.807834  -0.558314   0.517175   1.289750   1.847500  -0.741398   2.605340   3.677680  -1.525420  -2.014140   0.453881   0.023049  -3.305030   0.916391   8.278220  -6.223960   4.012820  11.593400 -78.571000   3.201990  -1.599760   0.391374   4.347970 -17.340400   7.382740  -4.418430  -1.878870  39.181700  32.239200 -48.720700 -32.763200   0.001779   0.003355 -11.381600   0.011770  -0.000000 -29.928700  -1.547580   2.684390 -24.516800   0.002809   0.011667 -17.172300   0.007008   0.008978 -28.812100  -3.746370   6.770060 -43.550100   0.002723   0.010578 -29.004400   0.000350   0.004797 -28.216200  -4.907850   9.056920 -37.569900  -0.000716  -0.001264 -25.021500   0.003955  -0.000498 -32.916300  -6.566700  10.029700 -50.238700   0.013238   0.000579 -33.459000  -0.005651   0.003152   4.896320   4.935880   7.166030  72.292100  -7.570470  -0.009467   3.723470  -5.968800  15.049900 -15.030800  -2.696220  12.191900 -46.781300  44.329500  88.984400   9.129200  -0.005121  -0.002994  -0.435403  -0.002599  -0.003042  30.396700   0.878955   1.498130  24.879400  -0.006238   0.000486  17.414600  -0.002627  -0.000000  28.615500  -1.858410  -3.401350  38.549600   0.004399  -0.006576  25.673200   0.004209   0.003154  28.278500  -2.788560  -5.167110  35.171600  -0.003847   0.005484  23.418100   0.001090   0.003501  30.834300  -3.557580  -5.934800  46.528300   0.000298  -0.001911  30.987800   0.000679  -0.001690   3.292470   2.860530   0.135534   0.045846   0.729492  12.022000  -3.530810  -3.220580   0.928346   0.000000   0.000000   0.000000  -1.538190   3.799690  -6.001830   1.788630   0.277931 -13.125300   0.107428  -2.719590  -1.092550   0.000000   0.000000  -0.000000
  0.478789  89.457000   1.111540  -0.807733  -0.571508   0.507761   1.290850   1.857890  -0.741404   2.607700   3.698450  -1.525550  -2.014820   0.478260   0.023047  -3.309400   0.965663   8.265430  -6.223990   4.012900  11.586600 -78.564600   3.195240  -1.598800   0.397865   4.369100 -17.400700   7.376440  -4.445920  -1.894100  39.185100  32.239800 -48.728100 -32.763700   0.001771   0.003348 -11.381900   0.011778  -0.000000 -29.935800  -1.547580   2.684390 -24.522600   0.002796   0.011661 -17.172400   0.007007   0.008972 -28.824200  -3.746380   6.770060 -43.568500   0.002717   0.010572 -29.016600   0.000343   0.004786 -28.217400  -4.904550   9.050370 -37.586100  -0.000735  -0.001267 -25.032300   0.003949  -0.000520 -32.929600  -6.566860  10.021800 -50.257300   0.013239   0.000566 -33.471400  -0.005649   0.003143   4.911390   4.913480   7.187930  72.286700  -7.602040  -0.011772   3.730790  -5.995300  15.163600 -15.059400  -2.641350  12.238900 -46.774800  44.334900  88.992800   9.107230  -0.005165  -0.002977  -0.446388  -0.002623  -0.003023  30.398500   0.889967   1.516920  24.881100  -0.006243   0.000494  17.416200  -0.002620   0.000000  28.616700  -1.848260  -3.382680  38.549500   0.004410  -0.006579  25.673200   0.004226   0.003181  28.278900  -2.784610  -5.159750  35.170500  -0.003831   0.005496  23.418200   0.001092   0.003507  30.831100  -3.553560  -5.929000  46.523000   0.000319  -0.001907  30.984300   0.000686  -0.001666   3.292620   2.877200   0.135534   0.038862   0.724646  12.021900  -3.524770  -3.220600   0.938584  -0.000000   0.000000   0.000000  -1.538260   3.833500  -5.996090   1.788870   0.242551 -13.107000   0.102618  -2.695810  -1.106240   0.000000   0.000000  -0.000000
  0.486583  89.457000   1.111490  -0.807632  -0.592374   0.489500   1.294100   1.875850  -0.741430   2.614480   3.734300  -1.526300  -2.019530   0.518494   0.023038  -3.318420   1.047100   8.252730  -6.226450   4.013000  11.571100 -78.554800   3.165550  -1.592130   0.412657   4.412120 -17.520200   7.358720  -4.473380  -1.919720  39.187600  32.237100 -48.742000 -32.764200   0.001757   0.003341 -11.382100   0.011798  -0.000000 -29.942900  -1.547580   2.684390 -24.528400   0.002766   0.011643 -17.172600   0.007001   0.008956 -28.841300  -3.746410   6.770060 -43.594400   0.002703   0.010557 -29.033900   0.000322   0.004759 -28.219700  -4.898160   9.037960 -37.602400  -0.000783  -0.001274 -25.043200   0.003932  -0.000576 -32.944200  -6.567120  10.008800 -50.279800   0.013244   0.000534 -33.486400  -0.005645   0.003119   4.938480   4.875490   7.232440  72.266300  -7.659870  -0.025228   3.751160  -6.043930  15.396700 -15.122100  -2.513220  12.354700 -46.769500  44.372500  89.051300   8.953430  -0.005272  -0.002934  -0.523284  -0.002680  -0.002987  30.407300   0.923225   1.573180  24.889000  -0.006254   0.000506  17.422300  -0.002596   0.000000  28.620400  -1.817150  -3.325590  38.548500   0.004437  -0.006589  25.673200   0.004270   0.003249  28.281800  -2.756930  -5.108230  35.162600  -0.003791   0.005527  23.418300   0.001098   0.003525  30.809100  -3.525400  -5.888380  46.486200   0.000375  -0.001899  30.959800   0.000700  -0.001606   3.292920   2.905670   0.135527   0.027480   0.713792  12.021900  -3.514730  -3.220620   0.954987  -0.000000   0.000000   0.000000  -1.540840   3.867340  -5.986080   1.789090   0.207177 -13.075600   0.097443  -2.672020  -1.128010  -0.000000   0.000000   0.000000
  0.493669  89.458200   1.107830  -0.807682  -0.605984   0.469613   1.299690   1.890930  -0.742097   2.625920   3.764370  -1.528090  -2.031440   0.550487   0.023010  -3.337120   1.112220   8.262400  -6.241230   4.007570  11.547700 -78.548800   3.105210  -1.570170   0.433310   4.464270 -17.647300   7.329420  -4.472100  -1.941090  39.183900  32.227900 -48.757400 -32.762200   0.001742   0.003342 -11.381100   0.011830   0.000000 -29.943100  -1.544950   2.679640 -24.528400   0.002725   0.011614 -17.172200   0.006986   0.008933 -28.849100  -3.746460   6.770070 -43.606200   0.002682   0.010532 -29.041800   0.000288   0.004720 -28.221800  -4.891850   9.026150 -37.601200  -0.000857  -0.001285 -25.042400   0.003905  -0.000664 -32.946700  -6.563920  10.000100 -50.284300   0.013252   0.000483 -33.489400  -0.005637   0.003082   4.966490   4.836320   7.286420  72.227200  -7.707980  -0.067531   3.787160  -6.108410  15.677700 -15.195700  -2.325880  12.517700 -47.003500  44.586000  89.367300   8.513670  -0.005432  -0.002863  -0.743160  -0.002766  -0.002951  30.428000   0.982190   1.672340  24.907300  -0.006271   0.000508  17.435200  -0.002555   0.000111  28.623000  -1.761030  -3.222780  38.527300   0.004476  -0.006608  25.659400   0.004343   0.003351  28.285600  -2.626420  -4.867590  35.080300  -0.003734   0.005571  23.365700   0.001111   0.003553  30.746500  -3.373170  -5.649210  46.368900   0.000463  -0.001887  30.881700   0.000717  -0.001516   3.293240   2.930730   0.135479   0.019031   0.694587  12.029000  -3.506560  -3.217750   0.966458  -0.000000   0.000000   0.000000  -1.546440   3.863680  -5.976890   1.789420   0.228693 -13.049000   0.099218  -2.676310  -1.143490  -0.000000   0.000000   0.000000
  0.502038  89.460600   1.100700  -0.807805  -0.619684   0.446406   1.307090   1.907980  -0.746663   2.641150   3.798250  -1.537970  -2.048470   0.580723   0.022989  -3.366240   1.173660   8.291380  -6.268170   3.996780  11.523300 -78.544100   3.018510  -1.530410   0.457976   4.523010 -17.812800   7.290070  -4.463480  -1.962100  39.181300  32.217400 -48.775500 -32.754200   0.001723   0.003343 -11.377100   0.011871   0.000000 -29.943400  -1.536560   2.665320 -24.528400   0.002673   0.011576 -17.169900   0.006965   0.008903 -28.851900  -3.746520   6.770090 -43.610500   0.002655   0.010499 -29.044600   0.000243   0.004671 -28.224700  -4.883070   9.010010 -37.592700  -0.000950  -0.001298 -25.036700   0.003869  -0.000773 -32.949900  -6.554380   9.987780 -50.284900   0.013263   0.000418 -33.489800  -0.005628   0.003035   4.992480   4.811240   7.346880  72.172700  -7.780520  -0.098696   3.828130  -6.145600  16.005400 -15.306600  -2.110610  12.743200 -47.367500  44.867900  89.791600   8.026410  -0.005626  -0.002779  -0.986791  -0.002873  -0.002909  30.451700   1.056890   1.797820  24.928600  -0.006291   0.000512  17.450000  -0.002502   0.000297  28.623300  -1.690640  -3.094040  38.475200   0.004524  -0.006632  25.624500   0.004432   0.003477  28.285300  -2.461900  -4.565320  34.952500  -0.003663   0.005626  23.278300   0.001127   0.003587  30.655800  -3.173710  -5.336040  46.204400   0.000573  -0.001873  30.772100   0.000739  -0.001405   3.293560   2.954970   0.135419   0.010422   0.681376  12.042300  -3.498880  -3.214880   0.977658   0.000000   0.000000   0.000000  -1.551860   3.860010  -5.968060   1.791880   0.259564 -13.020900   0.101136  -2.680610  -1.157160   0.000000   0.000000   0.000000
